<svg xmlns="http://www.w3.org/2000/svg" xmlns:xlink="http://www.w3.org/1999/xlink" width="250" height="67" viewBox="0 0 250 67">
    <defs>
        <path id="a" d="M0 .355v41.508h189.287V.355H0z"/>
        <path id="c" d="M8.732.355H.442V8.78h8.29V.355z"/>
        <path id="e" d="M0 66.007h249.683V.638H0z"/>
    </defs>
    <g fill="none" fill-rule="evenodd" transform="translate(0 .078)">
        <g transform="translate(0 .283)">
            <mask id="b" fill="#fff">
                <use xlink:href="#a"/>
            </mask>
            <path fill="#FFF" d="M173.824 14.956c0-4.517-2.39-7.76-6.95-7.76h-3.05v15.49h3.05c4.28 0 6.95-2.903 6.95-7.73zm-43.953 0c0-4.119-2.071-7.76-7.804-7.76h-2.21v15.49h2.21c5.161 0 7.804-2.938 7.804-7.73zm-46.514 9.226L78.748 11.82l-4.69 12.362c.215-.031 2.74-.323 4.69-.323 2.084 0 4.386.287 4.61.323zm-37.38.26L41.359 11.66 36.833 23.9a64.26 64.26 0 0 1 2.468-.045c3.67 0 6.383.53 6.677.587zm143.31-9.486c0 8.881-6.999 14.596-18.528 14.596h-6.935v12.31h-31.323l-12.644-16.716v16.717H89.64l-3.318-9.175c-.215-.042-3.586-.676-7.573-.676-3.97 0-7.493.622-7.687.656l-3.408 9.195H52.247l-2.514-6.981a30.58 30.58 0 0 1 8.11 3.352l.642-1.582c-2.329-1.384-8.83-4.685-18.157-4.685-7.217 0-11.807 1.767-19.308 1.767C8.84 33.734.438 27.782 0 27.49l3.237-7.938c.837.552 8.938 5.798 18.269 5.798 1.583 0 2.94-.084 4.204-.21L35.826.354H52.638l10.012 26.03L73.245.355h16.837l14.73 38.306V.355h20.13c13.686 0 20.392 6.299 20.392 14.601 0 8.308-6.518 11.516-8.328 12.338l11.79 12.864V.355h21.963c12.147 0 18.528 6.169 18.528 14.601zM32.999 34.025c.033-.005.075-.015.105-.02l-2.895 7.858H18.724l2.796-6.73H21.623c.777 0 6.02-.046 11.385-1.128l-.009.02z" mask="url(#b)"/>
        </g>
        <g transform="translate(188.931 .283)">
            <mask id="d" fill="#fff">
                <use xlink:href="#c"/>
            </mask>
            <path fill="#FFF" d="M3.814 4.41h.54c.615 0 1.136-.226 1.136-.803 0-.412-.3-.823-1.136-.823-.242 0-.41.02-.54.037V4.41zm0 2.597H3.07v-4.69c.393-.058.762-.112 1.32-.112.71 0 1.177.15 1.457.354.279.206.429.524.429.974 0 .616-.412.988-.914 1.139v.038c.409.074.687.446.781 1.14.114.728.223 1.009.298 1.157h-.784c-.107-.148-.22-.578-.315-1.195-.11-.6-.41-.822-1.005-.822h-.522v2.017zm.783-5.997c-1.844 0-3.355 1.586-3.355 3.55 0 1.999 1.51 3.57 3.375 3.57 1.86.018 3.35-1.571 3.35-3.551 0-1.983-1.49-3.57-3.35-3.57h-.02zm.02-.655c2.288 0 4.115 1.868 4.115 4.205 0 2.374-1.827 4.22-4.135 4.22-2.29 0-4.156-1.846-4.156-4.22C.441 2.223 2.307.355 4.597.355h.02z" mask="url(#d)"/>
        </g>
        <mask id="f" fill="#fff">
            <use xlink:href="#e"/>
        </mask>
        <path fill="#FFF" d="M209.843 65.773h1.75V51.029h-1.75zM148.495 51.965h4.841c3.52 0 4.414 2.126 4.414 3.862 0 1.735-.894 3.86-4.414 3.86h-2.974v6.086h-1.867V51.965zm1.867 6.084h2.45c1.476 0 2.955-.35 2.955-2.222 0-1.872-1.479-2.224-2.956-2.224h-2.449v4.446zM163.023 56.295c2.741 0 4.899 2.165 4.899 4.856 0 2.692-2.158 4.856-4.9 4.856-2.741 0-4.9-2.164-4.9-4.856 0-2.691 2.159-4.856 4.9-4.856m0 8.073c1.868 0 3.034-1.345 3.034-3.217 0-1.873-1.166-3.218-3.033-3.218s-3.034 1.345-3.034 3.218c0 1.872 1.167 3.217 3.034 3.217M175.06 58.85c-.409-.508-1.011-.917-1.887-.917-.816 0-1.535.37-1.535 1.034 0 1.11 1.575 1.267 2.351 1.442 1.518.37 2.684.956 2.684 2.691 0 2.088-1.905 2.907-3.733 2.907-1.517 0-2.644-.39-3.558-1.639l1.322-1.091c.564.565 1.225 1.091 2.236 1.091.894 0 1.867-.37 1.867-1.17 0-1.053-1.459-1.248-2.217-1.423-1.497-.37-2.819-.859-2.819-2.633 0-1.93 1.77-2.847 3.499-2.847 1.224 0 2.49.428 3.15 1.52l-1.36 1.034zM183.983 58.85c-.408-.508-1.01-.917-1.886-.917-.816 0-1.536.37-1.536 1.034 0 1.11 1.576 1.267 2.353 1.442 1.516.37 2.683.956 2.683 2.691 0 2.088-1.905 2.907-3.732 2.907-1.518 0-2.645-.39-3.56-1.639l1.323-1.091c.564.565 1.225 1.091 2.237 1.091.893 0 1.866-.37 1.866-1.17 0-1.053-1.458-1.248-2.217-1.423-1.497-.37-2.819-.859-2.819-2.633 0-1.93 1.77-2.847 3.5-2.847 1.224 0 2.489.428 3.15 1.52l-1.362 1.034zM189.02 51.926c.7 0 1.283.585 1.283 1.287s-.584 1.286-1.284 1.286c-.7 0-1.283-.584-1.283-1.286 0-.702.583-1.287 1.283-1.287zm-.876 13.846h1.75v-9.244h-1.75v9.244zM192.966 51.03h1.75v6.824h.04c.621-.956 1.884-1.56 3.206-1.56 2.839 0 4.687 2.087 4.687 4.857 0 2.73-1.828 4.856-4.687 4.856-1.245 0-2.526-.566-3.206-1.56h-.04v1.325h-1.75V51.03zm7.816 10.12c0-1.872-1.166-3.217-3.033-3.217-1.866 0-3.033 1.345-3.033 3.218 0 1.872 1.167 3.217 3.033 3.217 1.867 0 3.033-1.345 3.033-3.217zM205.76 51.926c.7 0 1.284.585 1.284 1.287s-.583 1.286-1.283 1.286-1.285-.584-1.285-1.286c0-.702.584-1.287 1.285-1.287zm-.875 13.846h1.75v-9.244h-1.75v9.244zM215.676 51.926c.7 0 1.283.585 1.283 1.287s-.582 1.286-1.283 1.286c-.7 0-1.284-.584-1.284-1.286 0-.702.584-1.287 1.284-1.287zm-.875 13.846h1.75v-9.244h-1.75v9.244zM224.562 58.05h-2.509v4.193c0 1.034 0 2.125 1.322 2.125.408 0 .895-.058 1.244-.273v1.6c-.409.234-1.224.312-1.575.312-2.703 0-2.74-1.658-2.74-3.14v-4.818h-2.022v-1.52h2.021v-2.595h1.75v2.594h2.509v1.521zM228.12 51.926c.7 0 1.283.585 1.283 1.287s-.583 1.286-1.283 1.286-1.283-.584-1.283-1.286c0-.702.583-1.287 1.283-1.287zm-.875 13.846h1.75v-9.244h-1.75v9.244zM233.388 61.794c0 1.619 1.498 2.691 3.112 2.691 1.069 0 1.847-.545 2.526-1.384l1.323 1.014c-.973 1.267-2.314 1.892-4.084 1.892-2.915 0-4.743-2.106-4.743-4.856 0-2.77 2.003-4.856 4.764-4.856 3.246 0 4.49 2.496 4.49 4.875v.624h-7.388zm5.523-1.404c-.04-1.54-.895-2.692-2.665-2.692-1.73 0-2.858 1.463-2.858 2.692h5.523zM248.069 58.85c-.408-.508-1.011-.917-1.887-.917-.816 0-1.535.37-1.535 1.034 0 1.11 1.576 1.267 2.352 1.442 1.517.37 2.683.956 2.683 2.691 0 2.088-1.905 2.907-3.732 2.907-1.518 0-2.644-.39-3.559-1.639l1.323-1.091c.563.565 1.224 1.091 2.236 1.091.893 0 1.866-.37 1.866-1.17 0-1.053-1.458-1.248-2.217-1.423-1.496-.37-2.819-.859-2.819-2.633 0-1.93 1.77-2.847 3.5-2.847 1.224 0 2.489.428 3.15 1.52l-1.361 1.034zM104.899 51.965h4.84c3.52 0 4.415 2.126 4.415 3.862 0 1.755-1.303 3.413-3.384 3.646l3.909 6.3h-2.334l-3.5-6.085h-2.08v6.085H104.9V51.965zm1.866 6.084h2.45c1.478 0 2.955-.35 2.955-2.222 0-1.872-1.477-2.224-2.955-2.224h-2.45v4.446zM117.619 61.794c0 1.619 1.497 2.691 3.11 2.691 1.07 0 1.848-.545 2.529-1.384l1.322 1.014c-.973 1.267-2.314 1.892-4.083 1.892-2.917 0-4.745-2.106-4.745-4.856 0-2.77 2.003-4.856 4.764-4.856 3.247 0 4.49 2.496 4.49 4.875v.624h-7.387zm5.522-1.404c-.04-1.54-.895-2.692-2.664-2.692-1.73 0-2.858 1.463-2.858 2.692h5.522zM127.05 57.66c.971-.916 2.372-1.366 3.655-1.366 2.721 0 3.85 1.482 3.85 3.082v4.72c0 .643.02 1.19.078 1.677h-1.556a16.98 16.98 0 0 1-.059-1.404h-.039c-.778 1.19-1.827 1.638-3.227 1.638-1.71 0-3.19-.975-3.19-2.77 0-2.379 2.276-3.198 5.076-3.198h1.282v-.39c0-.956-.698-1.95-2.196-1.95-1.341 0-1.983.565-2.626 1.053l-1.049-1.093zm4.938 3.666c-1.652 0-3.675.293-3.675 1.775 0 1.053.778 1.501 1.983 1.501 1.945 0 2.624-1.442 2.624-2.69v-.586h-.932zM137.53 65.773h1.75V51.029h-1.75z" mask="url(#f)"/>
    </g>
</svg>
